<?xml version="1.0" standalone="no"?>
<!DOCTYPE svg PUBLIC "-//W3C//DTD SVG 20010904//EN"
 "http://www.w3.org/TR/2001/REC-SVG-20010904/DTD/svg10.dtd">
<svg version="1.0" xmlns="http://www.w3.org/2000/svg"
 width="1024.000000pt" height="1024.000000pt" viewBox="0 0 1024.000000 1024.000000"
 preserveAspectRatio="xMidYMid meet">

<g transform="translate(0.000000,1024.000000) scale(0.100000,-0.100000)"
fill="#000000" stroke="none">
<path d="M4883 6542 c-303 -275 -278 -256 -310 -244 -16 5 -223 91 -461 191
-238 99 -441 181 -452 181 -21 0 -46 -22 -55 -49 -3 -12 46 -126 143 -327 82
-170 202 -421 267 -559 65 -137 127 -260 138 -272 11 -13 30 -23 41 -23 12 0
253 116 536 259 283 143 580 288 660 324 319 142 1018 437 1037 437 1 0 -36
-77 -83 -170 -46 -94 -84 -173 -84 -175 0 -13 -251 -515 -257 -515 -8 0 -97
46 -461 236 -128 67 -168 76 -195 46 -22 -24 -22 -76 -1 -93 9 -7 161 -89 338
-181 322 -168 361 -183 399 -155 10 6 66 116 126 242 60 127 179 376 266 555
86 179 159 335 162 346 7 30 -13 63 -41 70 -15 3 -63 -11 -142 -44 -325 -136
-804 -332 -810 -332 -7 0 -81 65 -335 297 -131 119 -162 143 -188 143 -26 0
-63 -29 -238 -188z m165 -345 l-3 -104 -153 67 -154 67 154 137 153 137 3
-100 c1 -55 1 -147 0 -204z m282 183 c53 -47 113 -100 134 -118 21 -18 36 -35
33 -38 -7 -8 -289 -134 -298 -134 -5 0 -9 93 -9 207 l0 206 22 -19 c13 -10 66
-57 118 -104z m-1320 2 c63 -27 188 -79 277 -116 90 -36 270 -112 400 -167
131 -56 249 -105 263 -111 22 -8 -15 -29 -345 -198 -203 -104 -373 -186 -376
-182 -6 6 -388 796 -406 839 -6 16 29 4 187 -65z"/>
<path d="M3100 5120 c-24 -24 -26 -57 -4 -88 14 -21 22 -22 163 -22 l148 0 43
-66 c180 -279 580 -277 762 4 l41 62 222 0 222 0 42 -64 c72 -111 187 -186
319 -206 169 -27 344 58 450 218 l35 52 221 0 222 0 43 -66 c73 -111 182 -182
314 -204 167 -29 352 59 454 218 l34 52 149 0 c137 0 152 2 170 20 26 26 25
64 -2 90 -20 19 -34 20 -214 20 -215 0 -201 5 -241 -83 -71 -154 -257 -225
-410 -157 -61 27 -136 106 -158 165 -10 28 -25 56 -34 63 -19 15 -612 18 -641
2 -10 -6 -31 -37 -46 -71 -52 -114 -156 -182 -284 -183 -127 -1 -224 61 -281
180 -16 35 -38 68 -49 74 -11 6 -137 10 -323 10 -340 0 -321 4 -348 -74 -33
-94 -149 -179 -261 -192 -121 -14 -246 57 -304 173 -50 100 -31 93 -245 93
-176 0 -190 -1 -209 -20z"/>
<path d="M5720 4209 c-70 -29 -91 -91 -45 -127 22 -17 36 -19 103 -15 73 4 80
3 124 -26 56 -36 79 -76 89 -155 12 -97 24 -103 227 -105 104 -1 112 -2 112
-20 0 -20 44 -61 65 -61 7 0 24 9 39 21 24 19 26 26 26 94 0 68 -2 75 -26 94
-24 19 -40 21 -165 21 -137 0 -139 0 -139 23 0 72 -104 198 -197 239 -55 23
-175 34 -213 17z"/>
<path d="M6540 4191 c-94 -33 -136 -105 -90 -151 24 -24 62 -26 94 -5 13 9 46
18 74 22 70 8 151 -31 195 -94 17 -24 42 -46 55 -50 52 -13 100 38 86 94 -4
13 -31 51 -60 82 -96 104 -236 144 -354 102z"/>
<path d="M2532 4174 c-22 -15 -22 -16 -22 -320 0 -291 1 -305 20 -324 27 -27
71 -26 98 3 22 23 22 29 22 319 l0 297 -26 20 c-32 25 -61 27 -92 5z"/>
<path d="M2924 4169 c-16 -18 -19 -38 -20 -128 l0 -106 -78 -5 c-66 -4 -81 -8
-97 -29 -22 -27 -23 -40 -8 -75 16 -33 57 -49 122 -44 l54 3 7 -80 c3 -44 6
-99 6 -122 0 -32 5 -46 22 -57 32 -23 65 -20 93 9 l25 24 0 289 c0 278 -1 290
-21 316 -26 33 -77 36 -105 5z"/>
<path d="M4089 4169 c-20 -20 -20 -29 -17 -222 3 -189 5 -205 27 -250 53 -107
159 -180 275 -192 92 -8 155 4 179 37 20 27 20 29 4 63 -19 39 -30 43 -138 47
-64 3 -82 8 -116 31 -22 15 -50 46 -64 70 -22 39 -24 54 -29 225 -5 167 -7
185 -24 198 -28 20 -73 17 -97 -7z"/>
<path d="M4801 4164 c-19 -24 -21 -40 -21 -179 0 -232 21 -306 112 -391 72
-67 120 -84 242 -84 116 0 139 12 139 71 0 51 -22 63 -127 69 -82 5 -98 9
-129 33 -78 59 -81 70 -87 280 -5 183 -6 189 -29 208 -34 27 -75 24 -100 -7z"/>
<path d="M7215 4165 l-25 -24 0 -289 c0 -278 1 -290 21 -316 27 -34 77 -36
107 -3 20 21 22 34 22 135 l0 112 120 0 120 0 0 -109 c0 -94 3 -112 21 -135
27 -34 77 -36 107 -3 22 23 22 29 22 314 0 279 -1 291 -21 317 -24 31 -66 35
-98 9 -18 -16 -21 -30 -22 -130 l-1 -113 -124 0 -124 0 0 104 c0 89 -3 107
-21 130 -27 34 -71 35 -104 1z"/>
<path d="M3474 4156 c-107 -50 -183 -152 -199 -266 -15 -106 32 -228 115 -303
70 -63 117 -77 267 -77 118 0 125 1 148 25 34 33 32 67 -6 99 -29 24 -37 26
-135 26 -124 0 -169 17 -210 80 -55 83 -37 196 41 256 36 27 45 29 158 34 110
5 120 7 138 29 25 31 24 75 -3 101 -19 18 -35 20 -142 20 -106 0 -127 -3 -172
-24z"/>
<path d="M5503 4018 c-52 -57 -64 -218 -24 -320 74 -190 298 -276 472 -182 92
50 125 118 79 164 -28 28 -65 25 -115 -11 -99 -72 -198 -56 -279 44 -24 30
-31 49 -34 98 -3 34 1 86 8 117 11 50 10 57 -7 81 -27 35 -72 39 -100 9z"/>
<path d="M3555 3905 c-44 -43 -29 -105 30 -125 62 -20 125 18 125 76 0 68
-104 101 -155 49z"/>
<path d="M6810 3720 c-64 -66 -99 -80 -205 -80 -72 0 -88 -3 -105 -20 -45 -45
-13 -112 59 -127 104 -22 227 10 304 78 83 73 108 138 67 179 -34 34 -67 26
-120 -30z"/>
</g>
</svg>
