<?xml version="1.0" standalone="no"?>
<!DOCTYPE svg PUBLIC "-//W3C//DTD SVG 20010904//EN"
 "http://www.w3.org/TR/2001/REC-SVG-20010904/DTD/svg10.dtd">
<svg version="1.0" xmlns="http://www.w3.org/2000/svg"
 width="703.000000pt" height="703.000000pt" viewBox="0 0 703.000000 703.000000"
 preserveAspectRatio="xMidYMid meet">

<g transform="translate(0.000000,703.000000) scale(0.100000,-0.100000)"
fill="#000000" stroke="none">
<path d="M3883 5863 c-22 -27 -118 -151 -214 -276 -96 -125 -216 -283 -267
-350 -52 -67 -99 -123 -106 -125 -11 -3 -278 51 -486 98 -131 30 -172 33 -192
17 -10 -8 -53 -124 -102 -278 -47 -145 -92 -288 -102 -316 -9 -29 -22 -53 -28
-53 -6 0 -200 -24 -431 -54 -231 -30 -447 -58 -480 -61 -83 -10 -107 -26 -103
-72 3 -40 -16 -25 298 -238 96 -65 202 -137 235 -160 88 -61 263 -181 399
-274 66 -44 125 -81 132 -81 27 0 61 23 79 53 29 49 259 404 443 682 225 341
472 679 868 1192 31 40 60 70 65 67 5 -3 9 -26 9 -52 0 -26 11 -189 24 -362
14 -173 28 -363 32 -422 l7 -106 -74 -6 c-41 -3 -130 -8 -199 -11 -300 -12
-396 -18 -413 -27 -41 -21 -37 -101 7 -117 26 -10 707 17 758 30 65 16 70 39
53 225 -8 88 -24 285 -35 439 -12 154 -27 357 -35 450 -8 94 -15 178 -15 187
0 25 -28 48 -60 48 -21 0 -37 -11 -67 -47z m-943 -824 c58 -12 140 -29 183
-38 43 -9 78 -20 77 -26 -1 -13 -181 -265 -189 -265 -5 0 -199 326 -210 353
-2 5 5 7 15 3 11 -3 66 -15 124 -27z m-156 -220 c54 -93 96 -172 93 -175 -5
-5 -320 -44 -324 -40 -4 4 121 386 126 386 3 0 50 -77 105 -171z m65 -356
c-13 -21 -48 -76 -79 -123 -31 -47 -121 -185 -199 -307 -79 -123 -147 -223
-152 -223 -4 0 -49 28 -98 63 -96 66 -185 127 -486 331 -104 71 -192 130 -194
132 -10 9 12 14 134 28 117 13 511 64 890 115 77 10 155 19 173 20 l34 1 -23
-37z"/>
<path d="M4991 4759 c-85 -49 -157 -92 -160 -95 -3 -3 -6 -49 -6 -103 0 -89
-3 -102 -33 -164 -89 -181 -315 -228 -476 -98 -21 17 -45 31 -52 31 -28 0
-544 -305 -550 -325 -4 -11 -8 -60 -8 -110 -2 -106 -22 -156 -89 -225 -107
-109 -283 -120 -406 -24 -24 19 -54 34 -65 34 -25 0 -532 -291 -550 -315 -9
-13 -10 -32 -4 -72 10 -63 -9 -154 -43 -209 -34 -55 -114 -120 -166 -135 -103
-30 -243 -2 -301 61 -13 14 -33 23 -49 23 -31 0 -306 -153 -335 -186 -35 -39
-7 -107 43 -107 12 0 77 32 146 71 l123 71 38 -22 c206 -123 483 -61 607 134
49 78 67 134 74 225 l6 83 194 113 195 113 50 -28 c176 -99 396 -71 535 68 89
89 141 209 141 328 l0 52 194 111 195 112 58 -30 c81 -40 135 -53 224 -53 242
2 421 177 445 436 l6 72 120 69 c118 68 148 93 148 127 0 27 -37 58 -67 58
-16 -1 -93 -39 -182 -91z"/>
<path d="M6086 4289 c-38 -30 -33 -60 25 -162 27 -49 49 -90 47 -92 -11 -9
-201 -115 -206 -115 -4 0 -32 42 -62 93 -52 87 -57 92 -92 95 -44 4 -78 -24
-78 -64 0 -38 278 -520 308 -533 34 -16 48 -14 78 12 38 33 34 62 -25 162 -28
48 -51 91 -51 95 0 9 185 120 200 120 4 0 30 -37 56 -82 63 -109 71 -118 111
-118 40 0 73 30 73 67 0 27 -253 477 -293 521 -26 28 -56 28 -91 1z"/>
<path d="M5262 3832 c-137 -49 -232 -198 -162 -254 37 -30 59 -22 124 45 64
67 87 77 170 77 22 0 61 -9 85 -20 56 -26 73 -25 99 3 25 27 28 64 7 93 -42
61 -222 92 -323 56z"/>
<path d="M5628 3541 c-18 -14 -27 -33 -31 -66 -13 -92 -48 -135 -153 -188 -60
-31 -84 -70 -63 -109 17 -32 28 -38 72 -38 71 0 175 68 225 148 34 52 62 139
62 188 0 64 -64 102 -112 65z"/>
<path d="M5026 3380 l-118 -69 -25 29 c-13 16 -54 44 -91 62 -60 30 -75 33
-152 33 -67 0 -96 -5 -137 -24 -101 -45 -154 -139 -105 -184 21 -19 77 -23 88
-6 3 6 27 24 52 40 37 23 57 29 102 29 71 0 114 -23 162 -86 59 -77 68 -77
216 4 126 70 127 71 148 51 28 -26 79 -25 98 3 23 33 20 54 -19 118 -55 91
-63 91 -219 0z"/>
<path d="M4324 3095 c-23 -35 -13 -100 28 -182 104 -212 373 -274 540 -124 95
85 126 200 67 244 -43 31 -78 14 -111 -54 -57 -120 -164 -157 -280 -98 -50 26
-91 83 -112 158 -18 65 -35 81 -85 81 -22 0 -35 -7 -47 -25z"/>
<path d="M3673 2900 c-24 -10 -43 -39 -43 -66 0 -9 39 -84 86 -165 97 -168
150 -225 242 -259 85 -33 186 -25 271 20 76 41 121 81 121 108 0 10 -9 31 -21
46 -28 36 -69 34 -133 -6 -45 -29 -59 -33 -122 -33 -107 0 -131 21 -233 199
-91 160 -112 179 -168 156z"/>
<path d="M3035 2525 c-14 -13 -25 -31 -25 -40 0 -41 166 -320 217 -365 52 -46
133 -81 202 -87 76 -7 152 16 233 70 54 36 63 47 66 75 4 38 -16 67 -54 76
-17 5 -46 -5 -100 -34 -86 -46 -135 -51 -199 -21 -56 26 -82 58 -164 204 -40
70 -81 132 -91 137 -31 16 -59 11 -85 -15z"/>
<path d="M2630 2284 c-118 -69 -141 -91 -176 -167 -88 -191 26 -419 235 -473
95 -24 146 -14 264 53 55 31 108 66 118 77 27 28 25 81 -3 100 -37 26 -73 19
-165 -34 -75 -43 -95 -50 -141 -50 -68 0 -119 27 -155 83 -34 52 -43 99 -27
150 19 65 42 90 128 138 87 48 117 82 106 124 -7 29 -39 55 -69 55 -11 0 -63
-25 -115 -56z"/>
<path d="M2722 2049 c-54 -35 -55 -108 -1 -138 32 -18 72 -9 104 24 79 78 -8
175 -103 114z"/>
<path d="M2043 1958 c-12 -6 -27 -23 -34 -39 -11 -27 -7 -36 40 -118 28 -49
51 -93 51 -99 0 -6 -25 -25 -55 -42 -59 -34 -75 -54 -75 -94 0 -28 42 -66 74
-66 11 0 47 16 79 35 l57 34 23 -37 c13 -20 36 -59 52 -87 42 -73 54 -85 91
-85 34 0 74 37 74 69 0 22 -276 502 -302 524 -23 19 -43 21 -75 5z"/>
<path d="M1686 1749 c-15 -12 -26 -30 -26 -45 0 -25 281 -522 303 -536 42 -27
107 9 107 59 0 18 -54 122 -142 275 -120 208 -147 249 -172 258 -39 13 -39 13
-70 -11z"/>
</g>
</svg>
