<?xml version="1.0" standalone="no"?>
<!DOCTYPE svg PUBLIC "-//W3C//DTD SVG 20010904//EN"
 "http://www.w3.org/TR/2001/REC-SVG-20010904/DTD/svg10.dtd">
<svg version="1.0" xmlns="http://www.w3.org/2000/svg"
 width="711.000000pt" height="711.000000pt" viewBox="0 0 711.000000 711.000000"
 preserveAspectRatio="xMidYMid meet">

<g transform="translate(0.000000,711.000000) scale(0.100000,-0.100000)"
fill="#ffffff" stroke="none">
<path d="M3117 5658 c-24 -22 -25 -32 -41 -258 -10 -129 -28 -370 -41 -535
-13 -165 -27 -345 -31 -401 -10 -147 -38 -136 392 -157 710 -36 1004 -62 1671
-147 319 -40 393 -51 393 -59 -1 -6 -101 -75 -572 -393 -113 -77 -211 -138
-216 -134 -5 3 -61 87 -123 186 -194 307 -233 364 -261 380 -25 13 -29 13 -55
-6 -55 -41 -50 -53 157 -379 105 -165 204 -313 221 -328 25 -23 37 -28 62 -23
17 3 38 12 46 20 18 15 189 133 436 301 88 60 201 137 250 172 50 34 140 96
201 137 60 41 116 81 123 90 20 24 5 72 -27 84 -15 6 -187 32 -382 57 -195 25
-413 54 -484 63 l-129 17 -44 130 c-24 72 -69 211 -99 310 -57 183 -75 215
-117 215 -12 0 -160 -30 -330 -66 -238 -51 -311 -63 -322 -54 -15 13 -37 40
-354 460 -225 298 -261 340 -286 340 -8 0 -25 -10 -38 -22z m352 -582 c85
-111 215 -282 289 -381 74 -99 153 -202 175 -228 22 -26 38 -49 36 -50 -5 -4
-286 9 -399 17 -41 3 -153 8 -248 12 -95 4 -175 11 -177 15 -5 6 13 281 30
474 8 91 35 448 35 464 0 8 24 -16 53 -54 28 -38 121 -159 206 -269z m800
-303 c-87 -152 -161 -279 -169 -286 -7 -8 -183 214 -196 247 -4 11 10 17 53
26 32 7 117 25 188 40 72 16 136 29 143 29 9 1 2 -20 -19 -56z m220 -214 c35
-105 61 -192 59 -194 -6 -6 -313 27 -322 35 -8 8 180 350 194 350 3 0 35 -86
69 -191z"/>
<path d="M1890 4590 c-20 -20 -25 -45 -14 -74 3 -9 61 -48 129 -87 l122 -70 6
-72 c8 -97 29 -161 76 -235 124 -190 374 -255 585 -151 32 16 63 29 70 29 6
-1 94 -49 196 -109 l185 -107 6 -76 c10 -116 52 -218 123 -297 35 -39 136
-101 194 -117 114 -34 266 -15 368 46 35 20 35 20 72 1 49 -25 334 -190 348
-202 6 -5 14 -47 16 -94 12 -232 208 -415 443 -415 78 1 135 14 211 51 34 16
65 29 69 29 4 0 63 -32 129 -70 67 -39 131 -70 142 -70 24 0 64 35 64 55 0 41
-28 65 -174 148 -84 49 -163 91 -174 94 -15 3 -34 -5 -62 -27 -156 -124 -380
-81 -475 91 -28 50 -30 62 -30 156 0 78 -4 106 -15 117 -30 29 -519 306 -541
306 -12 0 -37 -12 -56 -26 -64 -48 -122 -68 -203 -68 -91 0 -155 25 -217 86
-66 64 -87 124 -88 240 0 73 -4 101 -15 112 -14 12 -426 253 -497 289 -45 23
-54 22 -104 -18 -78 -63 -191 -81 -298 -49 -132 39 -238 220 -203 347 7 24 6
42 -2 57 -14 28 -309 200 -342 200 -13 0 -33 -9 -44 -20z"/>
<path d="M918 4053 c-8 -10 -76 -125 -151 -255 -142 -246 -155 -279 -118 -312
23 -21 78 -24 95 -5 13 14 245 409 280 478 30 57 1 111 -58 111 -19 0 -39 -7
-48 -17z"/>
<path d="M1278 3870 c-9 -6 -40 -51 -68 -100 -28 -50 -54 -90 -57 -90 -3 0
-27 13 -52 28 -64 39 -76 43 -110 31 -40 -14 -58 -57 -39 -96 11 -23 77 -70
123 -86 5 -2 -17 -49 -48 -104 -31 -56 -57 -110 -57 -120 0 -52 88 -85 122
-45 38 42 291 495 291 519 0 17 -11 36 -27 50 -29 25 -51 28 -78 13z"/>
<path d="M1623 3576 c-57 -18 -137 -79 -172 -130 -91 -132 -83 -320 18 -423
48 -49 214 -143 252 -143 56 0 89 68 56 112 -8 9 -49 38 -93 63 -104 62 -122
79 -140 141 -18 63 -8 119 30 168 31 41 99 76 149 76 36 0 118 -36 182 -79 59
-40 135 -12 135 50 -1 37 -18 53 -130 115 -96 55 -109 59 -175 61 -39 2 -89
-3 -112 -11z"/>
<path d="M1693 3325 c-81 -34 -40 -155 53 -155 50 0 88 40 80 83 -11 56 -81
94 -133 72z"/>
<path d="M2246 3238 c-77 -123 -156 -277 -167 -326 -33 -156 48 -304 207 -380
59 -28 73 -32 97 -23 36 14 51 52 34 92 -8 21 -32 42 -77 67 -55 31 -69 46
-92 91 -47 93 -40 126 69 312 41 71 73 137 73 152 0 38 -33 67 -75 67 -32 0
-39 -5 -69 -52z"/>
<path d="M2910 2927 c-32 -16 -182 -271 -206 -349 -32 -107 1 -242 79 -320 44
-44 157 -108 191 -108 32 0 66 33 65 63 -1 42 -15 59 -84 100 -88 54 -118 104
-113 188 4 48 15 75 86 197 45 78 82 154 82 167 0 27 -40 75 -62 75 -7 0 -24
-6 -38 -13z"/>
<path d="M3641 2484 c-24 -30 -24 -34 -11 -68 6 -18 29 -34 74 -55 115 -52
155 -157 103 -270 -39 -82 -30 -96 114 -183 118 -70 119 -71 113 -102 -8 -45
21 -79 66 -78 39 1 50 11 84 76 45 86 37 98 -119 189 -70 41 -109 69 -106 78
27 97 21 182 -19 264 -43 90 -161 175 -242 175 -28 0 -42 -6 -57 -26z"/>
<path d="M3424 2441 c-69 -42 -136 -149 -153 -247 -43 -235 166 -447 388 -394
80 19 106 76 57 125 -22 22 -30 24 -88 19 -97 -9 -161 26 -199 110 -40 88 -20
170 65 265 41 47 44 53 35 83 -16 58 -52 71 -105 39z"/>
<path d="M4323 2075 c-35 -15 -49 -48 -39 -89 7 -27 18 -33 84 -42 66 -9 118
-38 146 -83 26 -41 46 -102 46 -142 0 -58 77 -80 120 -34 20 22 22 31 18 90
-11 137 -109 262 -234 300 -61 18 -99 18 -141 0z"/>
<path d="M4982 1713 c-21 -19 -276 -453 -295 -502 -20 -53 35 -103 96 -87 16
4 39 34 77 101 30 52 58 95 62 95 5 0 53 -26 108 -57 l99 -57 -36 -65 c-81
-144 -78 -137 -68 -168 6 -15 23 -34 38 -41 42 -20 77 -4 110 54 141 239 267
464 267 476 0 32 -40 68 -75 68 -38 0 -57 -21 -114 -122 -18 -32 -37 -60 -42
-64 -11 -7 -209 104 -209 117 0 5 21 43 46 86 59 100 64 124 31 157 -30 30
-66 33 -95 9z"/>
<path d="M4080 1590 c-47 -47 -10 -116 92 -171 60 -32 68 -34 163 -34 81 0
109 4 147 22 61 28 82 59 67 101 -16 45 -48 52 -131 28 -83 -24 -130 -16 -211
39 -59 40 -98 44 -127 15z"/>
</g>
</svg>
