<?xml version="1.0" standalone="no"?>
<!DOCTYPE svg PUBLIC "-//W3C//DTD SVG 20010904//EN"
 "http://www.w3.org/TR/2001/REC-SVG-20010904/DTD/svg10.dtd">
<svg version="1.0" xmlns="http://www.w3.org/2000/svg"
 width="624.000000pt" height="668.000000pt" viewBox="0 0 624.000000 668.000000"
 preserveAspectRatio="xMidYMid meet">

<g transform="translate(0.000000,668.000000) scale(0.100000,-0.100000)"
fill="#000000" stroke="none">
<path d="M1742 5909 c-21 -8 -22 -9 -5 -29 10 -11 32 -23 49 -26 59 -11 107
-88 78 -125 -6 -8 -14 -29 -17 -46 -5 -28 -3 -33 12 -33 23 0 34 14 66 76 25
49 22 78 -12 97 -7 5 -11 13 -7 18 9 16 -28 40 -53 34 -12 -3 -28 1 -35 9 -11
11 -16 11 -36 -2 -27 -17 -41 -9 -22 13 17 20 11 25 -18 14z"/>
<path d="M1810 5625 c-13 -16 -82 -55 -96 -55 -3 0 -4 9 -1 20 5 20 -17 40
-42 40 -19 0 -12 -40 12 -73 28 -40 30 -95 4 -103 -12 -4 -17 -12 -14 -24 3
-13 0 -17 -9 -13 -8 3 -16 -5 -20 -21 -3 -14 -10 -26 -16 -26 -5 0 -14 -13
-19 -30 -6 -16 -15 -30 -20 -30 -5 0 -9 -9 -9 -21 0 -23 34 -72 43 -62 4 3 12
1 19 -5 26 -20 120 -19 112 2 -7 19 57 31 71 13 13 -17 109 -17 127 1 6 6 17
12 24 12 14 0 10 46 -6 65 -18 21 -57 19 -65 -4 -4 -15 -20 -20 -85 -25 -59
-6 -78 -11 -74 -20 6 -16 -21 -46 -42 -46 -18 0 -18 5 2 34 16 26 14 30 -28
40 -16 3 -28 12 -28 19 0 17 48 106 71 130 10 12 19 27 19 34 0 15 71 18 86 4
5 -5 23 -11 39 -13 24 -2 29 0 27 15 -2 10 2 25 9 33 17 21 4 42 -28 46 -23 2
-28 8 -29 31 -1 38 -17 52 -34 32z"/>
<path d="M3299 4990 c-8 -5 -35 -10 -59 -12 -25 -1 -51 -9 -61 -19 -9 -9 -22
-18 -29 -21 -14 -4 -28 -82 -30 -168 0 -30 -7 -66 -14 -79 -16 -29 -74 -52
-146 -58 -30 -3 -60 -9 -66 -14 -14 -11 -64 5 -64 21 0 5 -9 10 -20 10 -12 0
-25 10 -32 25 -6 14 -15 25 -20 25 -18 0 -80 54 -89 77 -5 13 -15 23 -24 23
-8 0 -15 5 -15 10 0 6 -7 10 -15 10 -9 0 -20 11 -25 24 -10 29 -30 41 -81 50
-26 4 -40 2 -48 -8 -13 -15 -14 -19 -37 -121 -8 -38 -18 -73 -22 -77 -12 -11
-194 -28 -238 -21 -26 3 -44 1 -48 -6 -4 -6 -25 -11 -46 -11 -21 0 -42 -4 -45
-10 -3 -5 -1 -10 4 -10 6 0 11 -9 11 -19 0 -14 -5 -18 -20 -14 -11 3 -20 10
-20 17 -1 13 -24 -24 -25 -39 0 -5 -12 -9 -28 -7 -19 3 -27 -1 -27 -12 0 -9
-17 -26 -38 -40 -20 -13 -50 -42 -66 -65 -16 -22 -34 -41 -40 -41 -6 0 -19
-12 -29 -26 -16 -21 -17 -27 -5 -41 11 -15 10 -16 -10 -11 -12 4 -20 2 -16 -3
3 -5 -1 -9 -9 -9 -34 0 -47 -96 -20 -146 7 -11 9 -38 6 -62 -4 -29 -1 -49 11
-66 9 -14 16 -36 16 -48 1 -13 9 -41 20 -63 11 -22 19 -45 20 -52 0 -7 9 -17
19 -23 12 -6 22 -26 26 -50 7 -41 19 -58 30 -40 8 13 45 13 45 0 0 -5 -8 -13
-17 -19 -15 -8 -15 -11 -3 -26 11 -14 26 -16 73 -13 44 3 60 1 64 -9 4 -11 9
-10 24 3 17 16 21 16 32 2 6 -9 19 -18 27 -21 10 -4 7 -6 -7 -6 -13 -1 -23 3
-23 9 0 19 -26 -1 -27 -21 -1 -12 -3 -22 -5 -24 -2 -2 -34 -6 -72 -10 -38 -3
-79 -13 -92 -21 -26 -18 -58 -63 -50 -71 3 -3 -1 -11 -8 -17 -23 -18 -31 -350
-10 -441 8 -38 20 -90 25 -115 11 -52 38 -129 52 -147 5 -7 6 -20 3 -29 -11
-27 14 -82 35 -77 18 5 29 -13 67 -117 46 -126 54 -144 66 -154 8 -6 16 -23
20 -37 7 -30 -21 -55 -96 -83 -28 -10 -48 -24 -48 -33 0 -8 -20 -34 -44 -57
-40 -37 -45 -48 -49 -93 -2 -29 -9 -58 -14 -65 -8 -9 -6 -27 5 -61 13 -40 20
-49 44 -54 29 -6 37 -18 17 -25 -16 -5 114 -83 170 -103 24 -8 50 -20 57 -26
7 -6 26 -12 43 -14 16 -2 42 -12 56 -21 22 -14 41 -16 127 -10 56 4 109 11
118 16 34 18 92 -22 143 -98 26 -40 47 -81 47 -92 0 -11 6 -23 14 -26 8 -3 17
-17 20 -30 4 -14 21 -41 39 -59 18 -19 50 -55 72 -81 45 -53 64 -72 91 -95 10
-9 43 -41 73 -73 30 -32 62 -56 73 -56 11 0 29 -11 40 -25 11 -14 29 -25 41
-25 12 0 30 -9 42 -20 24 -24 114 -88 135 -96 8 -3 26 -12 40 -20 14 -9 37
-20 52 -27 15 -6 29 -19 32 -30 4 -15 12 -18 48 -15 29 2 43 -1 43 -9 0 -7 10
-19 21 -27 30 -22 132 -58 147 -53 6 2 17 -3 23 -11 7 -10 30 -15 70 -16 47
-1 64 -6 82 -24 14 -14 30 -21 41 -17 10 3 34 -1 54 -10 20 -8 43 -12 52 -9 8
4 22 1 30 -6 7 -6 22 -10 32 -9 27 3 97 -13 105 -24 3 -6 15 -12 25 -13 155
-20 193 -23 207 -18 9 3 16 1 16 -5 0 -13 76 -15 84 -2 11 17 69 22 85 7 11
-10 21 -12 31 -6 22 14 29 12 54 -15 16 -17 37 -26 74 -30 33 -4 52 -2 52 5 0
13 33 13 47 -1 8 -8 22 -6 52 7 23 10 41 21 41 26 0 4 9 8 19 8 14 0 18 -5 14
-20 -4 -15 0 -20 15 -20 12 0 23 4 27 9 3 5 30 15 60 21 30 6 57 16 60 21 4 5
15 9 27 9 11 0 34 7 51 16 57 30 62 31 80 20 14 -9 21 -6 40 15 17 20 27 24
43 18 14 -4 32 -2 49 7 15 8 34 14 41 14 8 0 14 4 14 9 0 5 14 14 30 20 17 5
30 15 30 21 0 6 6 10 13 9 6 -1 17 -1 24 0 17 2 53 68 53 98 0 22 -3 25 -25
19 -14 -3 -37 -9 -52 -12 -16 -4 -40 -15 -55 -26 -16 -11 -33 -16 -39 -13 -5
4 -18 0 -28 -9 -9 -8 -37 -22 -61 -31 -24 -8 -48 -19 -54 -24 -15 -12 -109
-31 -155 -31 -21 0 -44 -6 -50 -14 -12 -14 -70 -26 -124 -26 -15 0 -36 -4 -46
-10 -28 -15 -161 -15 -296 -2 -285 30 -321 34 -347 48 -15 8 -37 14 -50 14
-13 0 -33 7 -45 15 -13 9 -73 24 -135 35 -62 11 -144 28 -183 39 -38 10 -97
25 -130 31 -32 7 -92 30 -132 51 -40 22 -81 39 -92 39 -10 0 -31 10 -46 23
-16 12 -58 38 -94 58 -64 35 -66 37 -66 76 0 22 -5 46 -10 54 -16 22 -57 111
-59 131 -1 3 -4 10 -8 14 -5 4 -8 27 -8 50 0 24 -8 58 -19 76 -16 29 -20 77
-12 141 1 4 18 7 39 7 20 0 66 5 101 11 60 9 65 8 87 -12 13 -13 24 -33 24
-45 0 -13 4 -26 10 -29 18 -11 43 -77 45 -118 3 -59 23 -124 40 -131 8 -3 15
-16 15 -30 0 -38 18 -41 51 -10 18 17 33 25 37 19 13 -19 61 -45 82 -45 27 0
87 46 104 79 17 32 40 163 37 213 -1 21 2 38 6 39 49 4 81 12 100 24 12 8 30
15 39 15 17 0 29 3 119 30 38 12 95 55 95 72 0 4 14 27 30 50 30 41 37 85 13
81 -7 -2 -10 3 -7 10 8 21 -49 122 -71 126 -11 2 -26 12 -33 22 -8 12 -25 19
-46 19 -17 0 -37 5 -43 11 -11 11 -106 15 -123 4 -5 -3 -32 -8 -60 -11 -29 -2
-62 -12 -75 -20 -13 -8 -25 -11 -28 -7 -3 4 -15 53 -27 108 -12 55 -29 115
-37 133 -8 18 -13 41 -11 51 2 10 -2 29 -8 42 -7 13 -19 40 -28 61 -9 20 -32
55 -51 78 -19 23 -35 45 -35 48 -1 4 -16 24 -35 46 -33 37 -37 38 -107 43 -48
2 -82 10 -104 23 -36 23 -150 29 -289 17 -44 -4 -115 -10 -158 -12 -77 -4
-101 -10 -93 -23 2 -4 -46 -7 -107 -7 -97 0 -118 3 -159 23 -25 13 -49 30 -52
38 -3 8 -15 14 -26 14 -20 0 -28 24 -11 34 4 3 6 37 3 76 -3 42 -1 70 5 70 5
0 16 19 24 42 15 47 80 112 137 139 63 29 165 56 210 54 32 -1 42 2 38 12 -3
7 -1 13 4 13 6 0 10 -6 10 -14 0 -16 117 -40 143 -30 9 3 24 1 35 -5 15 -8 23
-7 32 5 15 17 35 14 35 -7 0 -8 14 -27 30 -44 26 -26 38 -30 90 -31 37 -1 68
3 82 12 12 8 29 14 38 14 19 0 38 46 29 72 -4 15 -12 18 -32 13 -36 -7 -101
-8 -132 -1 -14 3 -54 10 -90 17 -36 6 -74 15 -85 19 -31 13 -223 21 -230 10
-9 -15 -25 -12 -25 5 0 22 -177 195 -216 211 -19 8 -42 22 -52 32 -10 9 -32
28 -50 42 -17 14 -32 30 -32 36 0 13 -35 28 -104 45 -27 7 -67 22 -90 34 -37
20 -41 25 -39 59 2 32 0 36 -21 36 -26 0 -86 27 -86 40 0 4 -22 32 -50 61 -27
30 -52 62 -56 72 -5 16 -20 21 -54 18 -14 -1 -40 59 -40 94 0 15 -10 19 -42
16 -14 -2 -18 5 -18 34 0 19 -4 43 -10 53 -19 33 -50 142 -50 174 0 37 28 102
62 151 13 18 23 34 23 37 0 5 25 30 100 100 20 19 116 70 131 70 4 0 15 -7 24
-15 15 -14 19 -14 30 0 10 12 27 13 85 8 55 -4 80 -2 103 9 17 9 41 14 54 11
35 -7 49 16 78 121 17 61 31 92 41 94 15 3 66 -34 136 -98 18 -17 39 -30 47
-30 9 0 12 -7 9 -19 -7 -26 27 -43 100 -52 31 -4 64 -12 72 -19 9 -7 30 -14
48 -16 17 -1 46 -10 62 -18 44 -23 73 -20 112 14 19 17 45 30 61 30 46 0 51 9
41 74 -6 33 -12 63 -15 68 -3 5 4 25 15 44 12 20 19 39 16 44 -2 4 2 21 10 38
18 36 58 52 126 52 45 0 49 2 49 24 0 23 -3 24 -37 19 -31 -5 -35 -4 -30 10 7
19 0 21 -24 7z m-79 -60 c0 -9 -42 -22 -48 -15 -3 2 -2 11 1 19 6 15 47 11 47
-4z m-1265 -1089 c3 -6 -4 -15 -15 -21 -20 -11 -21 -10 -10 9 12 23 16 25 25
12z m35 -91 c-19 -13 -30 -13 -30 0 0 6 10 10 23 10 18 0 19 -2 7 -10z m123
-231 c12 -7 24 -15 27 -19 3 -4 34 -21 70 -38 36 -17 74 -39 85 -49 11 -10 51
-34 89 -53 37 -19 86 -52 108 -72 22 -21 46 -38 54 -38 8 0 14 -6 14 -13 0
-22 46 -42 64 -28 18 15 29 0 19 -26 -10 -26 -61 -72 -89 -79 -13 -3 -24 -11
-24 -16 0 -5 -10 -8 -23 -6 -33 4 -71 -27 -73 -59 0 -20 -7 -29 -25 -33 -17
-4 -25 -14 -27 -34 -2 -16 2 -32 9 -37 9 -5 5 -10 -14 -14 -34 -9 -43 -25 -51
-96 -8 -63 0 -88 51 -159 69 -98 169 -146 249 -119 18 5 44 7 58 3 17 -4 41 1
72 16 36 18 48 20 54 10 5 -9 17 -10 36 -5 16 5 35 7 42 6 6 -1 28 2 47 8 19
5 49 6 67 2 37 -9 87 2 99 21 6 9 20 7 61 -10 29 -12 68 -22 85 -22 31 0 110
-37 145 -67 16 -14 24 -15 103 -1 12 2 21 -4 23 -16 2 -11 19 -41 38 -68 19
-26 32 -48 30 -48 -8 0 16 -75 28 -90 16 -19 49 -157 41 -170 -3 -5 -1 -27 6
-48 8 -28 8 -49 0 -78 -9 -31 -8 -47 5 -81 21 -54 43 -56 70 -8 6 11 33 27 60
35 27 8 54 18 59 21 38 25 203 27 221 4 6 -8 22 -19 37 -24 20 -8 30 -22 40
-58 8 -26 12 -55 10 -64 -6 -23 -75 -55 -161 -74 -40 -9 -79 -23 -87 -32 -16
-15 -26 -15 -141 3 -39 5 -42 4 -48 -21 -4 -15 -2 -62 5 -106 6 -43 8 -91 5
-107 -4 -15 -8 -38 -11 -50 -2 -13 -6 -26 -9 -29 -23 -23 -127 65 -147 125 -6
19 -17 46 -25 60 -8 15 -14 35 -14 44 0 9 -4 19 -9 22 -5 3 -11 31 -13 63 -3
35 -10 59 -18 61 -8 3 -24 15 -37 28 -18 19 -28 22 -47 14 -13 -4 -26 -16 -29
-25 -6 -14 -22 -15 -134 -10 -71 4 -141 10 -158 15 -49 14 -139 28 -150 23 -6
-2 -15 -18 -21 -36 -6 -22 -16 -33 -31 -35 -30 -4 -29 11 2 28 19 10 22 16 14
27 -6 7 -17 13 -23 13 -6 0 -20 9 -30 21 -11 13 -25 19 -37 16 -12 -3 -22 0
-26 9 -3 8 -16 14 -28 14 -13 0 -30 3 -39 6 -23 9 -20 66 5 97 24 31 33 137
12 144 -7 3 -13 11 -13 18 0 8 -10 15 -22 17 -16 2 -25 13 -33 41 -7 24 -21
44 -40 56 -17 10 -44 32 -60 49 -17 18 -40 32 -52 32 -12 0 -30 8 -40 18 -10
10 -34 25 -53 32 -19 7 -43 20 -53 28 -9 8 -20 12 -24 9 -3 -4 -12 -2 -19 4
-7 6 -38 11 -69 11 -50 1 -62 5 -108 41 -60 47 -67 55 -67 81 0 18 -38 105
-51 116 -9 8 -30 91 -33 127 -1 20 -13 44 -31 63 -16 16 -26 33 -22 36 4 4 -9
29 -28 56 -29 39 -35 57 -35 97 0 46 -18 81 -28 53 -2 -7 -8 -10 -13 -6 -14 8
-11 24 5 24 20 0 26 76 8 101 -10 15 -11 23 -3 33 7 8 9 35 6 67 -9 87 2 145
31 158 13 6 24 17 24 24 0 28 25 37 103 37 43 0 88 -5 100 -11z m287 -839 c0
-5 -5 -10 -11 -10 -5 0 -7 5 -4 10 3 6 8 10 11 10 2 0 4 -4 4 -10z m120 -71
c0 -16 5 -20 25 -17 13 2 25 -1 25 -7 1 -13 -27 -19 -48 -9 -9 4 -23 6 -29 5
-7 -1 -13 7 -13 18 0 17 11 28 33 30 4 1 7 -8 7 -20z m470 17 c0 -3 -4 -8 -10
-11 -5 -3 -10 -1 -10 4 0 6 5 11 10 11 6 0 10 -2 10 -4z m-674 -266 c0 -11 -4
-20 -8 -20 -10 0 -11 24 -1 33 9 9 9 10 9 -13z m-178 -55 c22 4 41 1 61 -11
27 -16 33 -16 56 -4 34 18 128 17 157 -2 13 -8 35 -18 51 -22 15 -3 27 -13 27
-21 0 -7 9 -17 20 -20 11 -3 25 -15 30 -26 8 -15 17 -18 37 -13 24 6 25 5 20
-18 -5 -18 -1 -30 13 -43 11 -10 20 -23 20 -28 0 -5 7 -15 16 -22 15 -10 15
-17 3 -63 -8 -35 -18 -52 -29 -52 -8 0 -20 -10 -25 -22 -6 -12 -39 -37 -75
-55 -63 -33 -68 -34 -155 -29 -150 9 -188 16 -215 41 -14 13 -44 28 -67 34
-23 7 -45 16 -48 21 -3 6 -19 10 -34 10 -20 0 -34 8 -46 28 -10 15 -24 30 -31
35 -8 5 -11 24 -9 55 2 26 -1 52 -7 59 -5 6 -6 28 -2 47 5 29 11 36 29 36 12
0 32 9 45 20 12 11 30 22 40 25 10 3 21 12 24 21 7 19 49 35 57 22 4 -6 20 -7
37 -3z m921 -622 c46 10 71 -15 70 -71 -1 -53 11 -162 19 -177 3 -5 7 -27 8
-50 1 -22 5 -64 9 -93 6 -49 6 -54 -11 -50 -14 2 -21 15 -25 43 -3 22 -10 49
-16 60 -21 41 -53 151 -53 185 0 20 -7 46 -16 58 -12 18 -13 26 -4 37 10 12 7
17 -15 25 -14 5 -28 10 -30 10 -2 0 -4 -19 -3 -43 0 -24 -3 -53 -6 -64 -4 -12
-2 -24 4 -28 5 -3 10 -15 10 -26 0 -22 -28 -26 -36 -4 -4 8 -14 15 -23 15 -14
1 -14 2 2 14 21 16 22 49 2 79 -22 35 -6 80 31 88 16 3 35 1 42 -4 6 -5 25 -7
41 -4z m96 7 c-3 -5 -11 -10 -16 -10 -6 0 -7 5 -4 10 3 6 11 10 16 10 6 0 7
-4 4 -10z m825 -911 c0 -24 -21 -24 -42 0 -16 19 -16 20 5 23 29 5 37 1 37
-23z m730 -69 c0 -5 -5 -10 -11 -10 -5 0 -7 5 -4 10 3 6 8 10 11 10 2 0 4 -4
4 -10z"/>
<path d="M2002 3420 c-18 -29 -15 -74 6 -100 27 -33 69 -21 88 26 16 37 12 54
-12 54 -8 0 -22 9 -31 20 -22 25 -35 25 -51 0z"/>
<path d="M2154 3409 c-13 -21 -14 -72 -3 -86 12 -14 49 -18 49 -5 0 5 11 14
25 20 31 14 31 26 0 57 -26 26 -59 33 -71 14z"/>
<path d="M3433 4909 c-13 -4 -23 -13 -23 -18 0 -15 41 -40 79 -47 28 -6 32
-10 27 -30 -5 -19 -2 -25 16 -28 30 -7 49 -9 72 -7 30 2 -1 31 -34 31 -24 0
-27 3 -22 25 5 27 -19 54 -47 55 -8 0 -22 6 -30 14 -11 9 -23 11 -38 5z"/>
<path d="M1054 4749 c-21 -10 -49 -19 -61 -19 -13 0 -23 -5 -23 -11 0 -5 4 -8
9 -5 13 9 41 -4 41 -18 0 -8 16 -12 43 -12 l42 1 -2 -45 c-1 -25 -3 -56 -5
-70 -2 -19 1 -25 17 -25 13 0 21 9 25 31 4 17 14 45 23 64 20 40 20 40 3 40
-8 0 -12 9 -11 25 2 18 -5 29 -30 44 -33 19 -34 19 -71 0z m26 -12 c0 -7 -9
-18 -20 -25 -18 -11 -20 -10 -20 9 0 15 5 19 15 15 8 -3 15 -1 15 4 0 6 2 10
5 10 3 0 5 -6 5 -13z"/>
<path d="M3691 4756 c-9 -11 -9 -19 0 -34 18 -28 85 -64 107 -58 12 4 26 -1
37 -14 10 -11 29 -20 43 -20 24 0 24 1 8 25 -9 14 -13 25 -8 25 16 0 63 -50
57 -60 -3 -6 0 -11 7 -11 27 -3 34 -5 63 -20 17 -9 52 -20 80 -24 27 -4 69
-18 93 -31 23 -13 51 -24 62 -24 11 0 46 -14 78 -30 43 -22 68 -28 89 -24 24
5 31 2 40 -19 9 -19 17 -24 32 -20 14 4 21 1 21 -9 0 -14 39 -38 63 -38 7 0
25 -16 40 -35 18 -23 36 -35 52 -35 14 0 30 -9 37 -20 7 -11 18 -20 24 -20 6
0 44 -31 83 -69 39 -38 84 -78 101 -87 16 -10 30 -22 30 -25 0 -4 16 -24 35
-45 19 -20 35 -40 35 -45 0 -4 9 -11 20 -14 12 -4 36 -22 55 -41 19 -19 40
-34 46 -34 13 0 49 -38 49 -53 0 -5 12 -20 27 -33 27 -23 27 -23 48 -4 25 24
35 25 35 5 0 -8 -9 -15 -20 -15 -27 0 -25 -25 5 -58 13 -15 52 -58 86 -97 34
-38 67 -71 73 -73 6 -1 18 -17 25 -34 18 -40 92 -113 111 -110 12 2 12 1 1 -6
-11 -8 -10 -14 4 -36 9 -14 21 -23 26 -20 5 3 9 -3 9 -13 1 -22 23 -53 39 -53
6 0 11 -7 11 -15 0 -7 6 -18 14 -22 7 -4 25 -31 40 -60 14 -28 30 -54 36 -58
5 -3 10 -15 10 -27 0 -11 22 -48 49 -82 54 -68 89 -134 116 -215 10 -30 26
-64 36 -75 11 -11 19 -28 19 -38 0 -10 4 -26 9 -36 25 -47 39 -92 45 -146 4
-32 11 -67 17 -77 16 -31 27 -293 20 -482 -3 -85 -45 -259 -75 -314 -8 -16
-24 -47 -36 -70 -12 -23 -28 -47 -36 -54 -9 -7 -22 -26 -29 -43 -16 -33 -36
-68 -46 -76 -3 -3 -13 -20 -22 -39 -16 -32 -16 -34 6 -52 12 -10 25 -18 30
-19 14 0 67 57 67 75 0 9 8 19 18 22 17 4 134 173 140 203 2 8 10 29 17 45 23
50 37 89 41 110 2 11 8 40 14 65 32 139 34 350 7 663 -5 52 -11 79 -37 142 -5
11 -13 38 -18 60 -14 58 -45 137 -60 156 -7 8 -28 51 -47 95 -49 117 -68 152
-86 157 -8 2 -28 31 -44 63 -16 32 -34 62 -41 67 -7 4 -11 13 -8 20 5 15 -30
52 -43 44 -12 -7 -46 20 -39 31 3 5 -1 15 -9 22 -8 7 -15 19 -15 26 0 17 -62
107 -102 149 -53 56 -88 99 -88 111 0 7 -13 24 -30 37 -16 14 -30 30 -30 35 0
6 -23 32 -51 59 -29 26 -64 61 -78 77 -167 187 -224 245 -248 251 -13 3 -23
10 -23 15 0 5 -23 28 -51 50 -29 23 -66 59 -83 80 -17 22 -58 59 -91 82 -33
24 -72 54 -85 66 -47 44 -104 78 -220 132 -14 6 -37 18 -53 26 -15 9 -44 18
-65 21 -20 3 -42 11 -47 18 -9 11 -32 18 -113 32 -18 3 -35 9 -38 14 -3 5 -13
9 -22 9 -9 0 -30 7 -46 15 -15 8 -35 15 -44 15 -8 0 -24 7 -33 16 -18 16 -30
19 -112 29 -20 3 -50 11 -67 20 -16 8 -44 15 -63 15 -19 0 -48 7 -63 15 -36
19 -58 19 -73 1z m49 -26 c0 -5 -9 -10 -20 -10 -11 0 -20 5 -20 10 0 6 9 10
20 10 11 0 20 -4 20 -10z m380 -150 c0 -5 -2 -10 -4 -10 -3 0 -8 5 -11 10 -3
6 -1 10 4 10 6 0 11 -4 11 -10z m1545 -1230 c3 -5 -3 -10 -15 -10 -12 0 -18 5
-15 10 3 6 10 10 15 10 5 0 12 -4 15 -10z m135 -200 c0 -5 -9 -10 -21 -10 -11
0 -17 5 -14 10 3 6 13 10 21 10 8 0 14 -4 14 -10z"/>
<path d="M3605 4750 c-3 -5 -1 -10 4 -10 6 0 11 5 11 10 0 6 -2 10 -4 10 -3 0
-8 -4 -11 -10z"/>
<path d="M876 4687 c-28 -26 -34 -47 -13 -47 22 0 62 49 50 61 -7 7 -18 3 -37
-14z"/>
<path d="M758 4673 c-36 -9 -9 -43 34 -43 31 0 33 3 18 31 -11 19 -19 21 -52
12z"/>
<path d="M1115 4500 c-4 -6 -11 -7 -17 -4 -7 5 -9 0 -6 -14 5 -17 2 -21 -16
-19 -17 2 -21 -4 -22 -26 -1 -15 -4 -30 -7 -33 -4 -4 -1 -16 5 -28 7 -11 13
-25 13 -31 1 -5 7 -8 15 -6 8 2 37 6 63 9 35 3 51 10 59 26 6 11 16 24 21 28
17 11 -13 39 -34 33 -11 -4 -29 -3 -40 0 -18 6 -20 13 -16 41 5 32 -5 46 -18
24z"/>
<path d="M936 4492 c-3 -5 -2 -20 2 -33 5 -18 15 -25 40 -27 39 -3 43 17 10
48 -23 21 -43 26 -52 12z"/>
<path d="M1025 4460 c-3 -5 -1 -10 4 -10 6 0 11 5 11 10 0 6 -2 10 -4 10 -3 0
-8 -4 -11 -10z"/>
<path d="M1030 4305 c0 -17 6 -25 18 -25 15 -1 15 -2 1 -13 -8 -7 -23 -27 -32
-46 l-17 -34 22 19 c39 33 52 63 42 96 -8 28 -34 31 -34 3z"/>
<path d="M2336 4284 c-18 -18 -21 -45 -6 -60 8 -8 7 -19 -1 -38 -16 -35 -8
-41 30 -21 17 8 32 13 32 10 1 -3 3 -8 4 -12 1 -5 6 -23 10 -41 7 -30 11 -33
34 -27 14 4 32 11 38 17 20 16 16 62 -7 76 -11 7 -20 23 -20 38 0 30 -45 73
-77 74 -12 0 -29 -7 -37 -16z"/>
<path d="M2789 4221 c-13 -10 -41 -24 -63 -32 -43 -15 -54 -32 -37 -53 13 -15
38 -12 86 9 17 8 45 19 63 25 34 13 38 21 22 51 -13 24 -40 24 -71 0z"/>
<path d="M4113 4214 c-3 -9 -6 -53 -7 -98 l-1 -81 38 -3 c21 -2 38 1 38 7 3
26 4 30 12 37 10 11 9 62 -3 69 -5 3 -10 17 -10 31 0 14 -6 24 -14 24 -8 0
-16 7 -20 15 -7 20 -25 19 -33 -1z"/>
<path d="M4262 4175 c4 -35 1 -50 -13 -66 -23 -27 -23 -24 -3 -82 18 -53 32
-58 68 -23 39 35 37 107 -5 169 -39 60 -53 60 -47 2z"/>
<path d="M1231 4144 c-24 -7 -49 -19 -57 -25 -8 -6 -22 -8 -31 -4 -10 4 -29 8
-43 10 -14 1 -40 8 -58 16 -55 23 -99 -19 -68 -66 17 -25 21 -26 64 -20 26 4
83 9 127 11 87 3 134 13 136 29 0 6 8 18 16 28 9 9 14 19 12 21 -14 11 -60 12
-98 0z"/>
<path d="M4403 4098 c-6 -7 -9 -21 -6 -30 2 -10 6 -32 10 -48 5 -29 43 -60 73
-60 12 0 14 37 2 44 -5 3 -8 22 -7 43 2 45 -9 63 -40 63 -12 0 -27 -6 -32 -12z"/>
<path d="M4995 3323 c-4 -12 1 -23 14 -32 14 -9 21 -24 21 -44 0 -31 16 -90
31 -117 5 -8 15 -30 23 -47 8 -18 22 -33 30 -33 31 0 49 73 21 84 -8 3 -15 12
-15 20 0 9 -9 20 -20 26 -14 8 -19 17 -15 30 3 10 1 21 -5 25 -5 3 -10 15 -10
25 0 16 -51 80 -64 80 -2 0 -7 -8 -11 -17z"/>
<path d="M5184 3304 c4 -16 15 -35 24 -42 9 -7 16 -19 15 -25 -2 -7 11 -27 27
-45 19 -21 30 -44 30 -62 0 -20 6 -31 20 -35 11 -3 20 -11 20 -16 0 -16 52
-10 66 9 16 21 17 32 3 32 -6 0 -28 19 -49 41 -22 24 -43 38 -50 34 -16 -10
-43 15 -31 29 15 18 -13 69 -49 90 l-33 19 7 -29z"/>
<path d="M3810 3276 c0 -19 4 -37 9 -40 5 -3 9 -53 10 -111 1 -158 9 -175 60
-136 18 13 22 23 16 37 -9 23 -13 51 -19 122 -2 29 -9 59 -15 66 -6 7 -9 20
-5 29 7 19 -23 67 -42 67 -9 0 -14 -12 -14 -34z"/>
<path d="M1085 3290 c-4 -6 -25 -10 -48 -9 -58 3 -119 -16 -147 -46 -13 -14
-33 -25 -45 -25 -12 0 -29 -8 -38 -18 -19 -21 -23 -42 -5 -24 7 7 30 12 53 12
31 0 48 7 72 29 20 18 36 25 44 20 14 -8 41 20 32 34 -3 5 3 7 13 5 11 -2 19
-10 19 -18 0 -8 11 -17 25 -20 20 -4 25 -12 26 -35 1 -17 5 -38 9 -47 9 -22
-22 -38 -74 -38 -38 0 -41 -2 -41 -26 0 -21 3 -24 14 -15 14 12 46 5 46 -10 0
-5 9 -9 21 -9 19 0 21 -5 18 -57 -4 -62 18 -113 49 -113 8 0 24 -7 33 -16 17
-15 21 -15 46 2 20 13 45 18 85 17 41 -1 61 3 71 15 15 18 34 102 22 102 -3 0
-23 -13 -43 -29 -68 -54 -182 -51 -182 4 0 20 8 29 34 40 38 16 57 52 35 66
-8 5 -31 12 -51 15 -41 7 -52 23 -38 58 9 24 6 91 -5 128 -7 19 -40 25 -50 8z"/>
<path d="M3569 3288 c-1 -2 -3 -36 -5 -75 -2 -59 0 -73 12 -73 20 0 34 41 34
101 0 42 -3 49 -20 49 -11 0 -20 -1 -21 -2z"/>
<path d="M4890 3251 c0 -16 7 -34 15 -41 8 -7 15 -23 15 -36 0 -13 4 -24 9
-24 5 0 12 -10 16 -22 3 -13 10 -32 15 -43 5 -11 14 -31 20 -45 5 -14 16 -34
22 -45 54 -85 70 -94 90 -50 10 22 8 27 -15 46 -15 11 -27 27 -27 35 0 7 -9
19 -20 26 -11 7 -20 18 -20 24 0 5 -9 29 -20 52 -11 22 -20 47 -20 55 0 8 -10
22 -21 33 -12 10 -25 29 -30 42 -12 31 -29 27 -29 -7z"/>
<path d="M723 3143 c4 -26 8 -28 46 -27 61 1 73 19 26 38 -58 24 -76 21 -72
-11z"/>
<path d="M3528 3068 c-17 -54 -5 -87 26 -75 36 14 42 111 7 120 -14 3 -21 -7
-33 -45z"/>
<path d="M5166 1852 c-3 -3 -6 -16 -6 -28 0 -13 -4 -26 -10 -29 -15 -9 -12
-111 3 -123 6 -6 25 -14 41 -18 l28 -7 -6 84 c-4 46 -7 91 -7 101 0 16 -33 31
-43 20z"/>
<path d="M5372 1848 c-16 -16 -15 -49 2 -73 23 -34 29 -80 12 -94 -14 -12 -14
-16 2 -37 21 -29 27 -29 60 -4 28 22 35 77 14 103 -6 7 -17 30 -24 51 -15 46
-48 72 -66 54z"/>
<path d="M3296 1483 c4 -16 11 -38 15 -51 6 -14 5 -31 -1 -42 -21 -38 -2 -120
27 -120 7 0 13 -4 13 -10 0 -23 39 -8 54 20 14 28 13 35 -15 103 -30 74 -67
127 -88 127 -7 0 -9 -10 -5 -27z"/>
<path d="M5654 1355 c-16 -12 -16 -14 -3 -15 9 0 22 7 29 15 16 19 0 19 -26 0z"/>
<path d="M5765 1180 c-10 -15 48 -124 68 -128 14 -3 17 4 17 33 0 27 -8 44
-34 70 -36 38 -41 40 -51 25z"/>
<path d="M5660 1097 c0 -13 5 -28 11 -34 7 -7 12 -30 12 -52 0 -23 3 -41 7
-41 4 0 10 -9 13 -20 8 -31 35 -14 43 26 3 19 2 40 -4 47 -5 6 -13 23 -17 37
-16 54 -65 82 -65 37z"/>
<path d="M4520 642 c0 -18 13 -20 55 -12 38 7 38 8 8 9 -17 0 -38 4 -47 7 -9
3 -16 1 -16 -4z"/>
</g>
</svg>
