<svg t="1741727466512" class="icon" viewBox="0 0 2717 1024" version="1.1" xmlns="http://www.w3.org/2000/svg" p-id="7210" width="200" height="200"><path d="M212.676923 316.389744c-5.251282 0-6.564103-2.625641-3.938461-6.564103l27.56923-35.446154c2.625641-3.938462 9.189744-6.564103 14.441026-6.564102h468.676923c5.251282 0 6.564103 3.938462 3.938462 7.876923l-22.317949 34.133333c-2.625641 3.938462-9.189744 7.876923-13.128205 7.876923zM14.441026 437.169231c-5.251282 0-6.564103-2.625641-3.938462-6.564103l27.569231-35.446154c2.625641-3.938462 9.189744-6.564103 14.441026-6.564102h598.646153c5.251282 0 7.876923 3.938462 6.564103 7.876923l-10.502564 31.507692c-1.312821 5.251282-6.564103 7.876923-11.815385 7.876923zM332.14359 557.948718c-5.251282 0-6.564103-3.938462-3.938462-7.876923l18.379487-32.820513c2.625641-3.938462 7.876923-7.876923 13.128206-7.876923h262.564102c5.251282 0 7.876923 3.938462 7.876923 9.189744l-2.625641 31.507692c0 5.251282-5.251282 9.189744-9.189743 9.189743zM1694.851282 292.758974c-82.707692 21.005128-139.158974 36.758974-220.553846 57.764103-19.692308 5.251282-21.005128 6.564103-38.071795-13.128205-19.692308-22.317949-34.133333-36.758974-61.702564-49.88718-82.707692-40.697436-162.789744-28.882051-237.620513 19.692308-89.271795 57.764103-135.220513 143.097436-133.907692 249.435897 1.312821 105.025641 73.517949 191.671795 177.230769 206.112821 89.271795 11.815385 164.102564-19.692308 223.179487-86.646154 11.815385-14.441026 22.317949-30.194872 35.446154-48.574359H1185.476923c-27.569231 0-34.133333-17.066667-24.94359-39.384615 17.066667-40.697436 48.574359-108.964103 66.953846-143.097436 3.938462-7.876923 13.128205-21.005128 32.820513-21.005128h477.866667c-2.625641 35.446154-2.625641 70.892308-7.876923 106.338461-14.441026 94.523077-49.887179 181.169231-107.651282 257.312821-94.523077 124.717949-217.928205 202.174359-374.153846 223.179487-128.65641 17.066667-248.123077-7.876923-353.148718-86.646154-97.148718-73.517949-152.287179-170.666667-166.728205-291.446154-17.066667-143.097436 24.94359-271.753846 111.589743-384.65641C933.415385 126.030769 1056.820513 48.574359 1207.794872 21.005128c123.405128-22.317949 241.558974-7.876923 347.897436 64.328205 69.579487 45.948718 119.466667 108.964103 152.287179 185.107693 7.876923 11.815385 2.625641 18.379487-13.128205 22.317948z" fill="#00ACD7" p-id="7211"></path><path d="M2129.394872 1018.748718c-119.466667-2.625641-228.430769-36.758974-320.328205-115.528205-77.45641-66.953846-126.030769-152.287179-141.784616-253.374359-23.630769-148.348718 17.066667-279.630769 106.338462-396.471795 95.835897-126.030769 211.364103-191.671795 367.589743-219.241026 133.907692-23.630769 259.938462-10.502564 374.153847 66.953846 103.712821 70.892308 168.041026 166.728205 185.107692 292.758975 22.317949 177.230769-28.882051 321.641026-150.974359 445.046154-86.646154 87.958974-192.984615 143.097436-315.076923 168.041025-35.446154 6.564103-70.892308 7.876923-105.025641 11.815385zM2441.846154 488.369231c-1.312821-17.066667-1.312821-30.194872-3.938462-43.323077-23.630769-129.969231-143.097436-203.487179-267.815384-174.605128-122.092308 27.569231-200.861538 105.025641-229.74359 228.430769-23.630769 102.4 26.25641 206.112821 120.779487 248.123077 72.205128 31.507692 144.410256 27.569231 213.989744-7.876923 103.712821-53.825641 160.164103-137.846154 166.728205-250.748718z" fill="#00ACD7" p-id="7212"></path></svg>